# xmcd
#
# Track frame offsets:
#	150
#	20489
#	37192
#	54222
#	71420
#	95227
#	110613
#	126851
#	145909
#	163554
#	181583
#	200402
#	218958
#
# Disc length: 3181 seconds
#
# Revision: 1
# Processed by: cddbd v1.5.2PL0 Copyright (c) Steve Scherf et al.
# Submitted via: audiograbber 1.83.01
#
DISCID=bb0c6b0d
DTITLE=Tim McGraw - Let It Go
DYEAR=2007
DGENRE=Country
TTITLE0=Last Dollar (Fly Away)
TTITLE1=I'm Workin'
TTITLE2=Let It Go
TTITLE3=Whiskey and You
TTITLE4=Suspicions
TTITLE5=Kristofferson
TTITLE6=Put Your Lovin' On Me
TTITLE7=Nothin' To Die For
TTITLE8=Between The River And Me
TTITLE9=Train # 10
TTITLE10=I Need You (With Faith Hill)
TTITLE11=Comin' Home
TTITLE12=Shotgun Rider
EXTD=
EXTT0=
EXTT1=
EXTT2=
EXTT3=
EXTT4=
EXTT5=
EXTT6=
EXTT7=
EXTT8=
EXTT9=
EXTT10=
EXTT11=
EXTT12=
PLAYORDER=
